<svg xmlns="http://www.w3.org/2000/svg" viewBox="0 0 100 100">
  <rect width="100" height="100" rx="20" fill="#24292e"/>
  <path d="M50 20c-16.569 0-30 13.431-30 30 0 13.251 8.594 24.5 20.518 28.468 1.5.275 2.048-.651 2.048-1.445 0-.713-.026-2.603-.04-5.112-8.345 1.814-10.105-4.021-10.105-4.021-1.364-3.466-3.33-4.388-3.33-4.388-2.722-1.86.206-1.822.206-1.822 3.01.212 4.594 3.091 4.594 3.091 2.674 4.583 7.017 3.259 8.727 2.492.272-1.938 1.047-3.26 1.904-4.009-6.663-.757-13.673-3.332-13.673-14.828 0-3.275 1.17-5.953 3.09-8.053-.31-.756-1.34-3.81.293-7.94 0 0 2.521-.807 8.257 3.075a28.677 28.677 0 017.515-1.01c2.55.012 5.12.345 7.522 1.01 5.73-3.882 8.247-3.075 8.247-3.075 1.636 4.13.607 7.184.297 7.94 1.924 2.1 3.086 4.778 3.086 8.053 0 11.523-7.021 14.062-13.707 14.803 1.078.93 2.038 2.764 2.038 5.57 0 4.021-.036 7.263-.036 8.248 0 .8.54 1.734 2.064 1.441C71.418 74.488 80 63.244 80 50c0-16.569-13.431-30-30-30z" fill="white"/>
</svg>
